<svg id="Lager_1" data-name="Lager 1" xmlns="http://www.w3.org/2000/svg" viewBox="0 0 1242 2208"><defs><style>.cls-1,.cls-32{opacity:0.29;}.cls-10,.cls-11,.cls-12,.cls-13,.cls-14,.cls-15,.cls-16,.cls-17,.cls-18,.cls-19,.cls-2,.cls-20,.cls-21,.cls-22,.cls-23,.cls-24,.cls-25,.cls-26,.cls-27,.cls-28,.cls-29,.cls-3,.cls-30,.cls-31,.cls-32,.cls-33,.cls-34,.cls-35,.cls-36,.cls-37,.cls-38,.cls-39,.cls-4,.cls-40,.cls-41,.cls-42,.cls-43,.cls-44,.cls-45,.cls-5,.cls-6,.cls-7,.cls-8,.cls-9{fill:#fff;stroke:#290c5b;stroke-miterlimit:10;}.cls-2{opacity:0.26;}.cls-3{opacity:0.21;}.cls-4{opacity:0.09;}.cls-5{opacity:0.22;}.cls-6{opacity:0.17;}.cls-7{opacity:0.01;}.cls-8{opacity:0.37;}.cls-9{opacity:0.48;}.cls-10{opacity:0.33;}.cls-11{opacity:0.55;}.cls-12{opacity:0.34;}.cls-13{opacity:0;}.cls-14{opacity:0.31;}.cls-15{opacity:0.08;}.cls-16{opacity:0.35;}.cls-17{opacity:0.7;}.cls-18{opacity:0.1;}.cls-19{opacity:0.27;}.cls-20{opacity:0.06;}.cls-21{opacity:0.11;}.cls-22{opacity:0.52;}.cls-23{opacity:0.24;}.cls-24{opacity:0.05;}.cls-25{opacity:0.45;}.cls-26{opacity:0.15;}.cls-27{opacity:0.62;}.cls-28{opacity:0.71;}.cls-29{opacity:0.36;}.cls-30{opacity:0.42;}.cls-31{opacity:0.23;}.cls-33{opacity:0.14;}.cls-34{opacity:0.16;}.cls-35{opacity:0.12;}.cls-36,.cls-46{opacity:0.2;}.cls-37{opacity:0.54;}.cls-38{opacity:0.28;}.cls-39{opacity:0.41;}.cls-40{opacity:0.4;}.cls-41{opacity:0.67;}.cls-42{opacity:0.57;}.cls-43{opacity:0.13;}.cls-44{opacity:0.44;}.cls-45{opacity:0.18;}</style></defs><title>background_blank</title><g class="cls-1"><polygon class="cls-2" points="743.65 716 644.35 716 594.7 802 644.35 888 743.65 888 793.3 802 743.65 716"/><polygon class="cls-3" points="892.61 802 793.3 802 743.65 888 793.3 974 892.61 974 942.26 888 892.61 802"/><polygon class="cls-4" points="892.61 630.5 793.3 630.5 743.65 716.5 793.3 802.5 892.61 802.5 942.26 716.5 892.61 630.5"/><polygon class="cls-5" points="594.7 458 495.39 458 445.74 544 495.39 630 594.7 630 644.35 544 594.7 458"/><polygon class="cls-6" points="743.65 544 644.35 544 594.7 630 644.35 716 743.65 716 793.3 630 743.65 544"/><polygon class="cls-6" points="743.65 372.5 644.35 372.5 594.7 458.5 644.35 544.5 743.65 544.5 793.3 458.5 743.65 372.5"/><polygon class="cls-4" points="445.74 715.5 346.44 715.5 296.78 801.5 346.44 887.5 445.74 887.5 495.39 801.5 445.74 715.5"/><polygon class="cls-3" points="594.7 801.5 495.39 801.5 445.74 887.5 495.39 973.5 594.7 973.5 644.35 887.5 594.7 801.5"/><polygon class="cls-7" points="594.7 630 495.39 630 445.74 716 495.39 802 594.7 802 644.35 716 594.7 630"/><polygon class="cls-8" points="594.7 973.5 495.39 973.5 445.74 1059.5 495.39 1145.5 594.7 1145.5 644.35 1059.5 594.7 973.5"/><polygon class="cls-9" points="743.65 1059.5 644.35 1059.5 594.7 1145.5 644.35 1231.5 743.65 1231.5 793.3 1145.5 743.65 1059.5"/><polygon class="cls-9" points="743.65 888 644.35 888 594.7 974 644.35 1060 743.65 1060 793.3 974 743.65 888"/><polygon class="cls-3" points="892.61 974 793.3 974 743.65 1060 793.3 1146 892.61 1146 942.26 1060 892.61 974"/><polygon class="cls-4" points="1041.57 1060 942.26 1060 892.61 1146 942.26 1232 1041.57 1232 1091.22 1146 1041.57 1060"/><polygon class="cls-10" points="1041.57 888.5 942.26 888.5 892.61 974.5 942.26 1060.5 1041.57 1060.5 1091.22 974.5 1041.57 888.5"/><polygon class="cls-11" points="892.61 458.5 793.3 458.5 743.65 544.5 793.3 630.5 892.61 630.5 942.26 544.5 892.61 458.5"/><polygon class="cls-12" points="1041.57 544.5 942.26 544.5 892.61 630.5 942.26 716.5 1041.57 716.5 1091.22 630.5 1041.57 544.5"/><polygon class="cls-13" points="1041.57 373 942.26 373 892.61 459 942.26 545 1041.57 545 1091.22 459 1041.57 373"/><polygon class="cls-4" points="1041.57 716 942.26 716 892.61 802 942.26 888 1041.57 888 1091.22 802 1041.57 716"/><polygon class="cls-14" points="1190.52 802 1091.22 802 1041.57 888 1091.22 974 1190.52 974 1240.17 888 1190.52 802"/><polygon class="cls-15" points="1190.52 630.5 1091.22 630.5 1041.57 716.5 1091.22 802.5 1190.52 802.5 1240.17 716.5 1190.52 630.5"/><polygon class="cls-16" points="147.83 715.5 48.52 715.5 -1.13 801.5 48.52 887.5 147.83 887.5 197.48 801.5 147.83 715.5"/><polygon class="cls-3" points="296.78 801.5 197.48 801.5 147.83 887.5 197.48 973.5 296.78 973.5 346.44 887.5 296.78 801.5"/><polygon class="cls-17" points="296.78 630 197.48 630 147.83 716 197.48 802 296.78 802 346.44 716 296.78 630"/><polygon class="cls-4" points="296.78 973 197.48 973 147.83 1059 197.48 1145 296.78 1145 346.44 1059 296.78 973"/><polygon class="cls-3" points="445.74 1059 346.44 1059 296.78 1145 346.44 1231 445.74 1231 495.39 1145 445.74 1059"/><polygon class="cls-3" points="445.74 887.5 346.44 887.5 296.78 973.5 346.44 1059.5 445.74 1059.5 495.39 973.5 445.74 887.5"/><polygon class="cls-18" points="296.78 458 197.48 458 147.83 544 197.48 630 296.78 630 346.44 544 296.78 458"/><polygon class="cls-19" points="445.74 544 346.44 544 296.78 630 346.44 716 445.74 716 495.39 630 445.74 544"/><polygon class="cls-20" points="445.74 372.5 346.44 372.5 296.78 458.5 346.44 544.5 445.74 544.5 495.39 458.5 445.74 372.5"/><polygon class="cls-6" points="445.74 200.5 346.44 200.5 296.78 286.5 346.44 372.5 445.74 372.5 495.39 286.5 445.74 200.5"/><polygon class="cls-21" points="594.7 286.5 495.39 286.5 445.74 372.5 495.39 458.5 594.7 458.5 644.35 372.5 594.7 286.5"/><polygon class="cls-15" points="594.7 115 495.39 115 445.74 201 495.39 287 594.7 287 644.35 201 594.7 115"/><polygon class="cls-22" points="743.65 200.5 644.35 200.5 594.7 286.5 644.35 372.5 743.65 372.5 793.3 286.5 743.65 200.5"/><polygon class="cls-5" points="892.61 286.5 793.3 286.5 743.65 372.5 793.3 458.5 892.61 458.5 942.26 372.5 892.61 286.5"/><polygon class="cls-17" points="892.61 115 793.3 115 743.65 201 793.3 287 892.61 287 942.26 201 892.61 115"/><polygon class="cls-19" points="1041.57 201 942.26 201 892.61 287 942.26 373 1041.57 373 1091.22 287 1041.57 201"/><polygon class="cls-23" points="1190.52 287 1091.22 287 1041.57 373 1091.22 459 1190.52 459 1240.17 373 1190.52 287"/><polygon class="cls-24" points="1190.52 115.5 1091.22 115.5 1041.57 201.5 1091.22 287.5 1190.52 287.5 1240.17 201.5 1190.52 115.5"/><polygon class="cls-14" points="892.61 -56.5 793.3 -56.5 743.65 29.5 793.3 115.5 892.61 115.5 942.26 29.5 892.61 -56.5"/><polygon class="cls-25" points="1041.57 29.5 942.26 29.5 892.61 115.5 942.26 201.5 1041.57 201.5 1091.22 115.5 1041.57 29.5"/><polygon class="cls-9" points="1041.57 -142 942.26 -142 892.61 -56 942.26 30 1041.57 30 1091.22 -56 1041.57 -142"/><polygon class="cls-26" points="1190.52 -56.5 1091.22 -56.5 1041.57 29.5 1091.22 115.5 1190.52 115.5 1240.17 29.5 1190.52 -56.5"/><polygon class="cls-3" points="1339.48 29.5 1240.17 29.5 1190.52 115.5 1240.17 201.5 1339.48 201.5 1389.13 115.5 1339.48 29.5"/><polygon class="cls-5" points="1339.48 -142 1240.17 -142 1190.52 -56 1240.17 30 1339.48 30 1389.13 -56 1339.48 -142"/><polygon class="cls-21" points="743.65 29 644.35 29 594.7 115 644.35 201 743.65 201 793.3 115 743.65 29"/><polygon class="cls-25" points="743.65 -142.5 644.35 -142.5 594.7 -56.5 644.35 29.5 743.65 29.5 793.3 -56.5 743.65 -142.5"/><polygon class="cls-27" points="296.78 -57 197.48 -57 147.83 29 197.48 115 296.78 115 346.44 29 296.78 -57"/><polygon class="cls-22" points="445.74 29 346.44 29 296.78 115 346.44 201 445.74 201 495.39 115 445.74 29"/><polygon class="cls-20" points="445.74 -142.5 346.44 -142.5 296.78 -56.5 346.44 29.5 445.74 29.5 495.39 -56.5 445.74 -142.5"/><polygon class="cls-28" points="147.83 200.5 48.52 200.5 -1.13 286.5 48.52 372.5 147.83 372.5 197.48 286.5 147.83 200.5"/><polygon class="cls-25" points="296.78 286.5 197.48 286.5 147.83 372.5 197.48 458.5 296.78 458.5 346.44 372.5 296.78 286.5"/><polygon class="cls-13" points="296.78 115 197.48 115 147.83 201 197.48 287 296.78 287 346.44 201 296.78 115"/><polygon class="cls-19" points="-1.13 457.5 -100.43 457.5 -150.09 543.5 -100.43 629.5 -1.13 629.5 48.52 543.5 -1.13 457.5"/><polygon class="cls-27" points="147.83 543.5 48.52 543.5 -1.13 629.5 48.52 715.5 147.83 715.5 197.48 629.5 147.83 543.5"/><polygon class="cls-29" points="147.83 372 48.52 372 -1.13 458 48.52 544 147.83 544 197.48 458 147.83 372"/><polygon class="cls-30" points="-1.13 -57 -100.43 -57 -150.09 29 -100.43 115 -1.13 115 48.52 29 -1.13 -57"/><polygon class="cls-19" points="147.83 29 48.52 29 -1.13 115 48.52 201 147.83 201 197.48 115 147.83 29"/><polygon class="cls-26" points="147.83 -142.5 48.52 -142.5 -1.13 -56.5 48.52 29.5 147.83 29.5 197.48 -56.5 147.83 -142.5"/><polygon class="cls-25" points="-1.13 286 -100.43 286 -150.09 372 -100.43 458 -1.13 458 48.52 372 -1.13 286"/><polygon class="cls-31" points="-1.13 114.5 -100.43 114.5 -150.09 200.5 -100.43 286.5 -1.13 286.5 48.52 200.5 -1.13 114.5"/><polygon class="cls-21" points="1190.52 459 1091.22 459 1041.57 545 1091.22 631 1190.52 631 1240.17 545 1190.52 459"/><polygon class="cls-13" points="1339.48 545 1240.17 545 1190.52 631 1240.17 717 1339.48 717 1389.13 631 1339.48 545"/><polygon class="cls-18" points="1339.48 373.5 1240.17 373.5 1190.52 459.5 1240.17 545.5 1339.48 545.5 1389.13 459.5 1339.48 373.5"/><polygon class="cls-13" points="1339.48 201.5 1240.17 201.5 1190.52 287.5 1240.17 373.5 1339.48 373.5 1389.13 287.5 1339.48 201.5"/><polygon class="cls-32" points="1339.48 716.5 1240.17 716.5 1190.52 802.5 1240.17 888.5 1339.48 888.5 1389.13 802.5 1339.48 716.5"/><polygon class="cls-11" points="1190.52 974.5 1091.22 974.5 1041.57 1060.5 1091.22 1146.5 1190.52 1146.5 1240.17 1060.5 1190.52 974.5"/><polygon class="cls-27" points="1339.48 1060.5 1240.17 1060.5 1190.52 1146.5 1240.17 1232.5 1339.48 1232.5 1389.13 1146.5 1339.48 1060.5"/><polygon class="cls-26" points="1339.48 889 1240.17 889 1190.52 975 1240.17 1061 1339.48 1061 1389.13 975 1339.48 889"/><polygon class="cls-25" points="-1.13 801 -100.43 801 -150.09 887 -100.43 973 -1.13 973 48.52 887 -1.13 801"/><polygon class="cls-20" points="-1.13 629.5 -100.43 629.5 -150.09 715.5 -100.43 801.5 -1.13 801.5 48.52 715.5 -1.13 629.5"/><polygon class="cls-27" points="-1.13 972.5 -100.43 972.5 -150.09 1058.5 -100.43 1144.5 -1.13 1144.5 48.52 1058.5 -1.13 972.5"/><polygon class="cls-22" points="147.83 1058.5 48.52 1058.5 -1.13 1144.5 48.52 1230.5 147.83 1230.5 197.48 1144.5 147.83 1058.5"/><polygon class="cls-4" points="147.83 887 48.52 887 -1.13 973 48.52 1059 147.83 1059 197.48 973 147.83 887"/><polygon class="cls-33" points="892.61 2004.5 793.3 2004.5 743.65 2090.5 793.3 2176.5 892.61 2176.5 942.26 2090.5 892.61 2004.5"/><polygon class="cls-26" points="1041.57 2090.5 942.26 2090.5 892.61 2176.5 942.26 2262.5 1041.57 2262.5 1091.22 2176.5 1041.57 2090.5"/><polygon class="cls-17" points="1041.57 1919 942.26 1919 892.61 2005 942.26 2091 1041.57 2091 1091.22 2005 1041.57 1919"/><polygon class="cls-34" points="743.65 1746.5 644.35 1746.5 594.7 1832.5 644.35 1918.5 743.65 1918.5 793.3 1832.5 743.65 1746.5"/><polygon class="cls-22" points="892.61 1832.5 793.3 1832.5 743.65 1918.5 793.3 2004.5 892.61 2004.5 942.26 1918.5 892.61 1832.5"/><polygon class="cls-5" points="892.61 1661 793.3 1661 743.65 1747 793.3 1833 892.61 1833 942.26 1747 892.61 1661"/><polygon class="cls-27" points="594.7 2004 495.39 2004 445.74 2090 495.39 2176 594.7 2176 644.35 2090 594.7 2004"/><polygon class="cls-35" points="743.65 2090 644.35 2090 594.7 2176 644.35 2262 743.65 2262 793.3 2176 743.65 2090"/><polygon class="cls-19" points="743.65 1918.5 644.35 1918.5 594.7 2004.5 644.35 2090.5 743.65 2090.5 793.3 2004.5 743.65 1918.5"/><polygon class="cls-36" points="892.61 2176.5 793.3 2176.5 743.65 2262.5 793.3 2348.5 892.61 2348.5 942.26 2262.5 892.61 2176.5"/><polygon class="cls-35" points="1190.52 2177 1091.22 2177 1041.57 2263 1091.22 2349 1190.52 2349 1240.17 2263 1190.52 2177"/><polygon class="cls-6" points="1041.57 1747 942.26 1747 892.61 1833 942.26 1919 1041.57 1919 1091.22 1833 1041.57 1747"/><polygon class="cls-18" points="1190.52 1833 1091.22 1833 1041.57 1919 1091.22 2005 1190.52 2005 1240.17 1919 1190.52 1833"/><polygon class="cls-37" points="1190.52 1661.5 1091.22 1661.5 1041.57 1747.5 1091.22 1833.5 1190.52 1833.5 1240.17 1747.5 1190.52 1661.5"/><polygon class="cls-36" points="1190.52 2004.5 1091.22 2004.5 1041.57 2090.5 1091.22 2176.5 1190.52 2176.5 1240.17 2090.5 1190.52 2004.5"/><polygon class="cls-4" points="1339.48 2090.5 1240.17 2090.5 1190.52 2176.5 1240.17 2262.5 1339.48 2262.5 1389.13 2176.5 1339.48 2090.5"/><polygon class="cls-15" points="1339.48 1919 1240.17 1919 1190.52 2005 1240.17 2091 1339.48 2091 1389.13 2005 1339.48 1919"/><polygon class="cls-19" points="296.78 2004 197.48 2004 147.83 2090 197.48 2176 296.78 2176 346.44 2090 296.78 2004"/><polygon class="cls-23" points="445.74 2090 346.44 2090 296.78 2176 346.44 2262 445.74 2262 495.39 2176 445.74 2090"/><polygon class="cls-19" points="445.74 1918.5 346.44 1918.5 296.78 2004.5 346.44 2090.5 445.74 2090.5 495.39 2004.5 445.74 1918.5"/><polygon class="cls-36" points="594.7 2176 495.39 2176 445.74 2262 495.39 2348 594.7 2348 644.35 2262 594.7 2176"/><polygon class="cls-8" points="445.74 1746.5 346.44 1746.5 296.78 1832.5 346.44 1918.5 445.74 1918.5 495.39 1832.5 445.74 1746.5"/><polygon class="cls-15" points="594.7 1832.5 495.39 1832.5 445.74 1918.5 495.39 2004.5 594.7 2004.5 644.35 1918.5 594.7 1832.5"/><polygon class="cls-38" points="594.7 1661 495.39 1661 445.74 1747 495.39 1833 594.7 1833 644.35 1747 594.7 1661"/><polygon class="cls-39" points="594.7 1489 495.39 1489 445.74 1575 495.39 1661 594.7 1661 644.35 1575 594.7 1489"/><polygon class="cls-22" points="743.65 1575 644.35 1575 594.7 1661 644.35 1747 743.65 1747 793.3 1661 743.65 1575"/><polygon class="cls-16" points="743.65 1403.5 644.35 1403.5 594.7 1489.5 644.35 1575.5 743.65 1575.5 793.3 1489.5 743.65 1403.5"/><polygon class="cls-13" points="892.61 1489 793.3 1489 743.65 1575 793.3 1661 892.61 1661 942.26 1575 892.61 1489"/><polygon class="cls-19" points="1041.57 1575 942.26 1575 892.61 1661 942.26 1747 1041.57 1747 1091.22 1661 1041.57 1575"/><polygon class="cls-40" points="1041.57 1403.5 942.26 1403.5 892.61 1489.5 942.26 1575.5 1041.57 1575.5 1091.22 1489.5 1041.57 1403.5"/><polygon class="cls-21" points="1190.52 1489.5 1091.22 1489.5 1041.57 1575.5 1091.22 1661.5 1190.52 1661.5 1240.17 1575.5 1190.52 1489.5"/><polygon class="cls-13" points="1339.48 1575.5 1240.17 1575.5 1190.52 1661.5 1240.17 1747.5 1339.48 1747.5 1389.13 1661.5 1339.48 1575.5"/><polygon class="cls-26" points="1339.48 1404 1240.17 1404 1190.52 1490 1240.17 1576 1339.48 1576 1389.13 1490 1339.48 1404"/><polygon class="cls-12" points="1041.57 1232 942.26 1232 892.61 1318 942.26 1404 1041.57 1404 1091.22 1318 1041.57 1232"/><polygon class="cls-23" points="1190.52 1318 1091.22 1318 1041.57 1404 1091.22 1490 1190.52 1490 1240.17 1404 1190.52 1318"/><polygon class="cls-28" points="1190.52 1146.5 1091.22 1146.5 1041.57 1232.5 1091.22 1318.5 1190.52 1318.5 1240.17 1232.5 1190.52 1146.5"/><polygon class="cls-13" points="1339.48 1232 1240.17 1232 1190.52 1318 1240.17 1404 1339.48 1404 1389.13 1318 1339.48 1232"/><polygon class="cls-41" points="-1.13 1317 -100.43 1317 -150.09 1403 -100.43 1489 -1.13 1489 48.52 1403 -1.13 1317"/><polygon class="cls-39" points="-1.13 1145.5 -100.43 1145.5 -150.09 1231.5 -100.43 1317.5 -1.13 1317.5 48.52 1231.5 -1.13 1145.5"/><polygon class="cls-3" points="743.65 1231.5 644.35 1231.5 594.7 1317.5 644.35 1403.5 743.65 1403.5 793.3 1317.5 743.65 1231.5"/><polygon class="cls-4" points="892.61 1317.5 793.3 1317.5 743.65 1403.5 793.3 1489.5 892.61 1489.5 942.26 1403.5 892.61 1317.5"/><polygon class="cls-42" points="892.61 1146 793.3 1146 743.65 1232 793.3 1318 892.61 1318 942.26 1232 892.61 1146"/><polygon class="cls-3" points="445.74 1231.5 346.44 1231.5 296.78 1317.5 346.44 1403.5 445.74 1403.5 495.39 1317.5 445.74 1231.5"/><polygon class="cls-3" points="594.7 1317.5 495.39 1317.5 445.74 1403.5 495.39 1489.5 594.7 1489.5 644.35 1403.5 594.7 1317.5"/><polygon class="cls-9" points="594.7 1146 495.39 1146 445.74 1232 495.39 1318 594.7 1318 644.35 1232 594.7 1146"/><polygon class="cls-6" points="296.78 1489 197.48 1489 147.83 1575 197.48 1661 296.78 1661 346.44 1575 296.78 1489"/><polygon class="cls-5" points="445.74 1575 346.44 1575 296.78 1661 346.44 1747 445.74 1747 495.39 1661 445.74 1575"/><polygon class="cls-4" points="445.74 1403.5 346.44 1403.5 296.78 1489.5 346.44 1575.5 445.74 1575.5 495.39 1489.5 445.74 1403.5"/><polygon class="cls-43" points="147.83 1746 48.52 1746 -1.13 1832 48.52 1918 147.83 1918 197.48 1832 147.83 1746"/><polygon class="cls-20" points="296.78 1832 197.48 1832 147.83 1918 197.48 2004 296.78 2004 346.44 1918 296.78 1832"/><polygon class="cls-19" points="296.78 1660.5 197.48 1660.5 147.83 1746.5 197.48 1832.5 296.78 1832.5 346.44 1746.5 296.78 1660.5"/><polygon class="cls-21" points="147.83 1231.5 48.52 1231.5 -1.13 1317.5 48.52 1403.5 147.83 1403.5 197.48 1317.5 147.83 1231.5"/><polygon class="cls-29" points="296.78 1317.5 197.48 1317.5 147.83 1403.5 197.48 1489.5 296.78 1489.5 346.44 1403.5 296.78 1317.5"/><polygon class="cls-4" points="296.78 1146 197.48 1146 147.83 1232 197.48 1318 296.78 1318 346.44 1232 296.78 1146"/><polygon class="cls-44" points="147.83 1574.5 48.52 1574.5 -1.13 1660.5 48.52 1746.5 147.83 1746.5 197.48 1660.5 147.83 1574.5"/><polygon class="cls-20" points="147.83 1403 48.52 1403 -1.13 1489 48.52 1575 147.83 1575 197.48 1489 147.83 1403"/><polygon class="cls-21" points="1339.48 1747.5 1240.17 1747.5 1190.52 1833.5 1240.17 1919.5 1339.48 1919.5 1389.13 1833.5 1339.48 1747.5"/><polygon class="cls-18" points="-1.13 1832.5 -100.43 1832.5 -150.09 1918.5 -100.43 2004.5 -1.13 2004.5 48.52 1918.5 -1.13 1832.5"/><polygon class="cls-22" points="-1.13 1661 -100.43 1661 -150.09 1747 -100.43 1833 -1.13 1833 48.52 1747 -1.13 1661"/><polygon class="cls-15" points="-1.13 1489 -100.43 1489 -150.09 1575 -100.43 1661 -1.13 1661 48.52 1575 -1.13 1489"/><polygon class="cls-13" points="-1.13 2004 -100.43 2004 -150.09 2090 -100.43 2176 -1.13 2176 48.52 2090 -1.13 2004"/><polygon class="cls-25" points="-1.13 2176.5 -100.43 2176.5 -150.09 2262.5 -100.43 2348.5 -1.13 2348.5 48.52 2262.5 -1.13 2176.5"/><polygon class="cls-18" points="147.83 2089.5 48.52 2089.5 -1.13 2175.5 48.52 2261.5 147.83 2261.5 197.48 2175.5 147.83 2089.5"/><polygon class="cls-45" points="147.83 1918 48.52 1918 -1.13 2004 48.52 2090 147.83 2090 197.48 2004 147.83 1918"/><polygon class="cls-36" points="296.78 2175.5 197.48 2175.5 147.83 2261.5 197.48 2347.5 296.78 2347.5 346.44 2261.5 296.78 2175.5"/></g><g class="cls-46"><polygon class="cls-2" points="832.71 800.24 733.41 800.24 683.76 886.24 733.41 972.24 832.71 972.24 882.37 886.24 832.71 800.24"/><polygon class="cls-3" points="981.67 886.24 882.37 886.24 832.71 972.24 882.37 1058.24 981.67 1058.24 1031.32 972.24 981.67 886.24"/><polygon class="cls-4" points="981.67 714.74 882.37 714.74 832.71 800.74 882.37 886.74 981.67 886.74 1031.32 800.74 981.67 714.74"/><polygon class="cls-5" points="683.76 542.24 584.45 542.24 534.8 628.24 584.45 714.24 683.76 714.24 733.41 628.24 683.76 542.24"/><polygon class="cls-6" points="832.71 628.24 733.41 628.24 683.76 714.24 733.41 800.24 832.71 800.24 882.37 714.24 832.71 628.24"/><polygon class="cls-6" points="832.71 456.74 733.41 456.74 683.76 542.74 733.41 628.74 832.71 628.74 882.37 542.74 832.71 456.74"/><polygon class="cls-4" points="534.8 799.74 435.5 799.74 385.84 885.74 435.5 971.74 534.8 971.74 584.45 885.74 534.8 799.74"/><polygon class="cls-3" points="683.76 885.74 584.45 885.74 534.8 971.74 584.45 1057.74 683.76 1057.74 733.41 971.74 683.76 885.74"/><polygon class="cls-7" points="683.76 714.24 584.45 714.24 534.8 800.24 584.45 886.24 683.76 886.24 733.41 800.24 683.76 714.24"/><polygon class="cls-8" points="683.76 1057.74 584.45 1057.74 534.8 1143.74 584.45 1229.74 683.76 1229.74 733.41 1143.74 683.76 1057.74"/><polygon class="cls-9" points="832.71 1143.74 733.41 1143.74 683.76 1229.74 733.41 1315.74 832.71 1315.74 882.37 1229.74 832.71 1143.74"/><polygon class="cls-9" points="832.71 972.24 733.41 972.24 683.76 1058.24 733.41 1144.24 832.71 1144.24 882.37 1058.24 832.71 972.24"/><polygon class="cls-3" points="981.67 1058.24 882.37 1058.24 832.71 1144.24 882.37 1230.24 981.67 1230.24 1031.32 1144.24 981.67 1058.24"/><polygon class="cls-4" points="1130.63 1144.24 1031.32 1144.24 981.67 1230.24 1031.32 1316.24 1130.63 1316.24 1180.28 1230.24 1130.63 1144.24"/><polygon class="cls-10" points="1130.63 972.74 1031.32 972.74 981.67 1058.74 1031.32 1144.74 1130.63 1144.74 1180.28 1058.74 1130.63 972.74"/><polygon class="cls-11" points="981.67 542.74 882.37 542.74 832.71 628.74 882.37 714.74 981.67 714.74 1031.32 628.74 981.67 542.74"/><polygon class="cls-12" points="1130.63 628.74 1031.32 628.74 981.67 714.74 1031.32 800.74 1130.63 800.74 1180.28 714.74 1130.63 628.74"/><polygon class="cls-13" points="1130.63 457.24 1031.32 457.24 981.67 543.24 1031.32 629.24 1130.63 629.24 1180.28 543.24 1130.63 457.24"/><polygon class="cls-4" points="1130.63 800.24 1031.32 800.24 981.67 886.24 1031.32 972.24 1130.63 972.24 1180.28 886.24 1130.63 800.24"/><polygon class="cls-14" points="1279.58 886.24 1180.28 886.24 1130.63 972.24 1180.28 1058.24 1279.58 1058.24 1329.23 972.24 1279.58 886.24"/><polygon class="cls-15" points="1279.58 714.74 1180.28 714.74 1130.63 800.74 1180.28 886.74 1279.58 886.74 1329.23 800.74 1279.58 714.74"/><polygon class="cls-16" points="236.89 799.74 137.58 799.74 87.93 885.74 137.58 971.74 236.89 971.74 286.54 885.74 236.89 799.74"/><polygon class="cls-3" points="385.84 885.74 286.54 885.74 236.89 971.74 286.54 1057.74 385.84 1057.74 435.5 971.74 385.84 885.74"/><polygon class="cls-17" points="385.84 714.24 286.54 714.24 236.89 800.24 286.54 886.24 385.84 886.24 435.5 800.24 385.84 714.24"/><polygon class="cls-4" points="385.84 1057.24 286.54 1057.24 236.89 1143.24 286.54 1229.24 385.84 1229.24 435.5 1143.24 385.84 1057.24"/><polygon class="cls-3" points="534.8 1143.24 435.5 1143.24 385.84 1229.24 435.5 1315.24 534.8 1315.24 584.45 1229.24 534.8 1143.24"/><polygon class="cls-3" points="534.8 971.74 435.5 971.74 385.84 1057.74 435.5 1143.74 534.8 1143.74 584.45 1057.74 534.8 971.74"/><polygon class="cls-18" points="385.84 542.24 286.54 542.24 236.89 628.24 286.54 714.24 385.84 714.24 435.5 628.24 385.84 542.24"/><polygon class="cls-19" points="534.8 628.24 435.5 628.24 385.84 714.24 435.5 800.24 534.8 800.24 584.45 714.24 534.8 628.24"/><polygon class="cls-20" points="534.8 456.74 435.5 456.74 385.84 542.74 435.5 628.74 534.8 628.74 584.45 542.74 534.8 456.74"/><polygon class="cls-6" points="534.8 284.74 435.5 284.74 385.84 370.74 435.5 456.74 534.8 456.74 584.45 370.74 534.8 284.74"/><polygon class="cls-21" points="683.76 370.74 584.45 370.74 534.8 456.74 584.45 542.74 683.76 542.74 733.41 456.74 683.76 370.74"/><polygon class="cls-15" points="683.76 199.24 584.45 199.24 534.8 285.24 584.45 371.24 683.76 371.24 733.41 285.24 683.76 199.24"/><polygon class="cls-22" points="832.71 284.74 733.41 284.74 683.76 370.74 733.41 456.74 832.71 456.74 882.37 370.74 832.71 284.74"/><polygon class="cls-5" points="981.67 370.74 882.37 370.74 832.71 456.74 882.37 542.74 981.67 542.74 1031.32 456.74 981.67 370.74"/><polygon class="cls-17" points="981.67 199.24 882.37 199.24 832.71 285.24 882.37 371.24 981.67 371.24 1031.32 285.24 981.67 199.24"/><polygon class="cls-19" points="1130.63 285.24 1031.32 285.24 981.67 371.24 1031.32 457.24 1130.63 457.24 1180.28 371.24 1130.63 285.24"/><polygon class="cls-23" points="1279.58 371.24 1180.28 371.24 1130.63 457.24 1180.28 543.24 1279.58 543.24 1329.23 457.24 1279.58 371.24"/><polygon class="cls-24" points="1279.58 199.74 1180.28 199.74 1130.63 285.74 1180.28 371.74 1279.58 371.74 1329.23 285.74 1279.58 199.74"/><polygon class="cls-14" points="981.67 27.74 882.37 27.74 832.71 113.74 882.37 199.74 981.67 199.74 1031.32 113.74 981.67 27.74"/><polygon class="cls-25" points="1130.63 113.74 1031.32 113.74 981.67 199.74 1031.32 285.74 1130.63 285.74 1180.28 199.74 1130.63 113.74"/><polygon class="cls-9" points="1130.63 -57.76 1031.32 -57.76 981.67 28.24 1031.32 114.24 1130.63 114.24 1180.28 28.24 1130.63 -57.76"/><polygon class="cls-26" points="1279.58 27.74 1180.28 27.74 1130.63 113.74 1180.28 199.74 1279.58 199.74 1329.23 113.74 1279.58 27.74"/><polygon class="cls-21" points="832.71 113.24 733.41 113.24 683.76 199.24 733.41 285.24 832.71 285.24 882.37 199.24 832.71 113.24"/><polygon class="cls-25" points="832.71 -58.26 733.41 -58.26 683.76 27.74 733.41 113.74 832.71 113.74 882.37 27.74 832.71 -58.26"/><polygon class="cls-27" points="385.84 27.24 286.54 27.24 236.89 113.24 286.54 199.24 385.84 199.24 435.5 113.24 385.84 27.24"/><polygon class="cls-22" points="534.8 113.24 435.5 113.24 385.84 199.24 435.5 285.24 534.8 285.24 584.45 199.24 534.8 113.24"/><polygon class="cls-20" points="534.8 -58.26 435.5 -58.26 385.84 27.74 435.5 113.74 534.8 113.74 584.45 27.74 534.8 -58.26"/><polygon class="cls-28" points="236.89 284.74 137.58 284.74 87.93 370.74 137.58 456.74 236.89 456.74 286.54 370.74 236.89 284.74"/><polygon class="cls-25" points="385.84 370.74 286.54 370.74 236.89 456.74 286.54 542.74 385.84 542.74 435.5 456.74 385.84 370.74"/><polygon class="cls-13" points="385.84 199.24 286.54 199.24 236.89 285.24 286.54 371.24 385.84 371.24 435.5 285.24 385.84 199.24"/><polygon class="cls-19" points="87.93 541.74 -11.37 541.74 -61.03 627.74 -11.37 713.74 87.93 713.74 137.58 627.74 87.93 541.74"/><polygon class="cls-27" points="236.89 627.74 137.58 627.74 87.93 713.74 137.58 799.74 236.89 799.74 286.54 713.74 236.89 627.74"/><polygon class="cls-29" points="236.89 456.24 137.58 456.24 87.93 542.24 137.58 628.24 236.89 628.24 286.54 542.24 236.89 456.24"/><polygon class="cls-30" points="87.93 27.24 -11.37 27.24 -61.03 113.24 -11.37 199.24 87.93 199.24 137.58 113.24 87.93 27.24"/><polygon class="cls-19" points="236.89 113.24 137.58 113.24 87.93 199.24 137.58 285.24 236.89 285.24 286.54 199.24 236.89 113.24"/><polygon class="cls-26" points="236.89 -58.26 137.58 -58.26 87.93 27.74 137.58 113.74 236.89 113.74 286.54 27.74 236.89 -58.26"/><polygon class="cls-25" points="87.93 370.24 -11.37 370.24 -61.03 456.24 -11.37 542.24 87.93 542.24 137.58 456.24 87.93 370.24"/><polygon class="cls-31" points="87.93 198.74 -11.37 198.74 -61.03 284.74 -11.37 370.74 87.93 370.74 137.58 284.74 87.93 198.74"/><polygon class="cls-21" points="1279.58 543.24 1180.28 543.24 1130.63 629.24 1180.28 715.24 1279.58 715.24 1329.23 629.24 1279.58 543.24"/><polygon class="cls-11" points="1279.58 1058.74 1180.28 1058.74 1130.63 1144.74 1180.28 1230.74 1279.58 1230.74 1329.23 1144.74 1279.58 1058.74"/><polygon class="cls-25" points="87.93 885.24 -11.37 885.24 -61.03 971.24 -11.37 1057.24 87.93 1057.24 137.58 971.24 87.93 885.24"/><polygon class="cls-20" points="87.93 713.74 -11.37 713.74 -61.03 799.74 -11.37 885.74 87.93 885.74 137.58 799.74 87.93 713.74"/><polygon class="cls-27" points="87.93 1056.74 -11.37 1056.74 -61.03 1142.74 -11.37 1228.74 87.93 1228.74 137.58 1142.74 87.93 1056.74"/><polygon class="cls-22" points="236.89 1142.74 137.58 1142.74 87.93 1228.74 137.58 1314.74 236.89 1314.74 286.54 1228.74 236.89 1142.74"/><polygon class="cls-4" points="236.89 971.24 137.58 971.24 87.93 1057.24 137.58 1143.24 236.89 1143.24 286.54 1057.24 236.89 971.24"/><polygon class="cls-33" points="981.67 2088.74 882.37 2088.74 832.71 2174.74 882.37 2260.74 981.67 2260.74 1031.32 2174.74 981.67 2088.74"/><polygon class="cls-26" points="1130.63 2174.74 1031.32 2174.74 981.67 2260.74 1031.32 2346.74 1130.63 2346.74 1180.28 2260.74 1130.63 2174.74"/><polygon class="cls-17" points="1130.63 2003.24 1031.32 2003.24 981.67 2089.24 1031.32 2175.24 1130.63 2175.24 1180.28 2089.24 1130.63 2003.24"/><polygon class="cls-34" points="832.71 1830.74 733.41 1830.74 683.76 1916.74 733.41 2002.74 832.71 2002.74 882.37 1916.74 832.71 1830.74"/><polygon class="cls-22" points="981.67 1916.74 882.37 1916.74 832.71 2002.74 882.37 2088.74 981.67 2088.74 1031.32 2002.74 981.67 1916.74"/><polygon class="cls-5" points="981.67 1745.24 882.37 1745.24 832.71 1831.24 882.37 1917.24 981.67 1917.24 1031.32 1831.24 981.67 1745.24"/><polygon class="cls-27" points="683.76 2088.24 584.45 2088.24 534.8 2174.24 584.45 2260.24 683.76 2260.24 733.41 2174.24 683.76 2088.24"/><polygon class="cls-35" points="832.71 2174.24 733.41 2174.24 683.76 2260.24 733.41 2346.24 832.71 2346.24 882.37 2260.24 832.71 2174.24"/><polygon class="cls-19" points="832.71 2002.74 733.41 2002.74 683.76 2088.74 733.41 2174.74 832.71 2174.74 882.37 2088.74 832.71 2002.74"/><polygon class="cls-6" points="1130.63 1831.24 1031.32 1831.24 981.67 1917.24 1031.32 2003.24 1130.63 2003.24 1180.28 1917.24 1130.63 1831.24"/><polygon class="cls-18" points="1279.58 1917.24 1180.28 1917.24 1130.63 2003.24 1180.28 2089.24 1279.58 2089.24 1329.23 2003.24 1279.58 1917.24"/><polygon class="cls-37" points="1279.58 1745.74 1180.28 1745.74 1130.63 1831.74 1180.28 1917.74 1279.58 1917.74 1329.23 1831.74 1279.58 1745.74"/><polygon class="cls-36" points="1279.58 2088.74 1180.28 2088.74 1130.63 2174.74 1180.28 2260.74 1279.58 2260.74 1329.23 2174.74 1279.58 2088.74"/><polygon class="cls-19" points="385.84 2088.24 286.54 2088.24 236.89 2174.24 286.54 2260.24 385.84 2260.24 435.5 2174.24 385.84 2088.24"/><polygon class="cls-23" points="534.8 2174.24 435.5 2174.24 385.84 2260.24 435.5 2346.24 534.8 2346.24 584.45 2260.24 534.8 2174.24"/><polygon class="cls-19" points="534.8 2002.74 435.5 2002.74 385.84 2088.74 435.5 2174.74 534.8 2174.74 584.45 2088.74 534.8 2002.74"/><polygon class="cls-8" points="534.8 1830.74 435.5 1830.74 385.84 1916.74 435.5 2002.74 534.8 2002.74 584.45 1916.74 534.8 1830.74"/><polygon class="cls-15" points="683.76 1916.74 584.45 1916.74 534.8 2002.74 584.45 2088.74 683.76 2088.74 733.41 2002.74 683.76 1916.74"/><polygon class="cls-38" points="683.76 1745.24 584.45 1745.24 534.8 1831.24 584.45 1917.24 683.76 1917.24 733.41 1831.24 683.76 1745.24"/><polygon class="cls-39" points="683.76 1573.24 584.45 1573.24 534.8 1659.24 584.45 1745.24 683.76 1745.24 733.41 1659.24 683.76 1573.24"/><polygon class="cls-22" points="832.71 1659.24 733.41 1659.24 683.76 1745.24 733.41 1831.24 832.71 1831.24 882.37 1745.24 832.71 1659.24"/><polygon class="cls-16" points="832.71 1487.74 733.41 1487.74 683.76 1573.74 733.41 1659.74 832.71 1659.74 882.37 1573.74 832.71 1487.74"/><polygon class="cls-13" points="981.67 1573.24 882.37 1573.24 832.71 1659.24 882.37 1745.24 981.67 1745.24 1031.32 1659.24 981.67 1573.24"/><polygon class="cls-19" points="1130.63 1659.24 1031.32 1659.24 981.67 1745.24 1031.32 1831.24 1130.63 1831.24 1180.28 1745.24 1130.63 1659.24"/><polygon class="cls-40" points="1130.63 1487.74 1031.32 1487.74 981.67 1573.74 1031.32 1659.74 1130.63 1659.74 1180.28 1573.74 1130.63 1487.74"/><polygon class="cls-21" points="1279.58 1573.74 1180.28 1573.74 1130.63 1659.74 1180.28 1745.74 1279.58 1745.74 1329.23 1659.74 1279.58 1573.74"/><polygon class="cls-12" points="1130.63 1316.24 1031.32 1316.24 981.67 1402.24 1031.32 1488.24 1130.63 1488.24 1180.28 1402.24 1130.63 1316.24"/><polygon class="cls-23" points="1279.58 1402.24 1180.28 1402.24 1130.63 1488.24 1180.28 1574.24 1279.58 1574.24 1329.23 1488.24 1279.58 1402.24"/><polygon class="cls-28" points="1279.58 1230.74 1180.28 1230.74 1130.63 1316.74 1180.28 1402.74 1279.58 1402.74 1329.23 1316.74 1279.58 1230.74"/><polygon class="cls-41" points="87.93 1401.24 -11.37 1401.24 -61.03 1487.24 -11.37 1573.24 87.93 1573.24 137.58 1487.24 87.93 1401.24"/><polygon class="cls-39" points="87.93 1229.74 -11.37 1229.74 -61.03 1315.74 -11.37 1401.74 87.93 1401.74 137.58 1315.74 87.93 1229.74"/><polygon class="cls-3" points="832.71 1315.74 733.41 1315.74 683.76 1401.74 733.41 1487.74 832.71 1487.74 882.37 1401.74 832.71 1315.74"/><polygon class="cls-4" points="981.67 1401.74 882.37 1401.74 832.71 1487.74 882.37 1573.74 981.67 1573.74 1031.32 1487.74 981.67 1401.74"/><polygon class="cls-42" points="981.67 1230.24 882.37 1230.24 832.71 1316.24 882.37 1402.24 981.67 1402.24 1031.32 1316.24 981.67 1230.24"/><polygon class="cls-3" points="534.8 1315.74 435.5 1315.74 385.84 1401.74 435.5 1487.74 534.8 1487.74 584.45 1401.74 534.8 1315.74"/><polygon class="cls-3" points="683.76 1401.74 584.45 1401.74 534.8 1487.74 584.45 1573.74 683.76 1573.74 733.41 1487.74 683.76 1401.74"/><polygon class="cls-9" points="683.76 1230.24 584.45 1230.24 534.8 1316.24 584.45 1402.24 683.76 1402.24 733.41 1316.24 683.76 1230.24"/><polygon class="cls-6" points="385.84 1573.24 286.54 1573.24 236.89 1659.24 286.54 1745.24 385.84 1745.24 435.5 1659.24 385.84 1573.24"/><polygon class="cls-5" points="534.8 1659.24 435.5 1659.24 385.84 1745.24 435.5 1831.24 534.8 1831.24 584.45 1745.24 534.8 1659.24"/><polygon class="cls-4" points="534.8 1487.74 435.5 1487.74 385.84 1573.74 435.5 1659.74 534.8 1659.74 584.45 1573.74 534.8 1487.74"/><polygon class="cls-43" points="236.89 1830.24 137.58 1830.24 87.93 1916.24 137.58 2002.24 236.89 2002.24 286.54 1916.24 236.89 1830.24"/><polygon class="cls-20" points="385.84 1916.24 286.54 1916.24 236.89 2002.24 286.54 2088.24 385.84 2088.24 435.5 2002.24 385.84 1916.24"/><polygon class="cls-19" points="385.84 1744.74 286.54 1744.74 236.89 1830.74 286.54 1916.74 385.84 1916.74 435.5 1830.74 385.84 1744.74"/><polygon class="cls-21" points="236.89 1315.74 137.58 1315.74 87.93 1401.74 137.58 1487.74 236.89 1487.74 286.54 1401.74 236.89 1315.74"/><polygon class="cls-29" points="385.84 1401.74 286.54 1401.74 236.89 1487.74 286.54 1573.74 385.84 1573.74 435.5 1487.74 385.84 1401.74"/><polygon class="cls-4" points="385.84 1230.24 286.54 1230.24 236.89 1316.24 286.54 1402.24 385.84 1402.24 435.5 1316.24 385.84 1230.24"/><polygon class="cls-44" points="236.89 1658.74 137.58 1658.74 87.93 1744.74 137.58 1830.74 236.89 1830.74 286.54 1744.74 236.89 1658.74"/><polygon class="cls-20" points="236.89 1487.24 137.58 1487.24 87.93 1573.24 137.58 1659.24 236.89 1659.24 286.54 1573.24 236.89 1487.24"/><polygon class="cls-18" points="87.93 1916.74 -11.37 1916.74 -61.03 2002.74 -11.37 2088.74 87.93 2088.74 137.58 2002.74 87.93 1916.74"/><polygon class="cls-22" points="87.93 1745.24 -11.37 1745.24 -61.03 1831.24 -11.37 1917.24 87.93 1917.24 137.58 1831.24 87.93 1745.24"/><polygon class="cls-15" points="87.93 1573.24 -11.37 1573.24 -61.03 1659.24 -11.37 1745.24 87.93 1745.24 137.58 1659.24 87.93 1573.24"/><polygon class="cls-13" points="87.93 2088.24 -11.37 2088.24 -61.03 2174.24 -11.37 2260.24 87.93 2260.24 137.58 2174.24 87.93 2088.24"/><polygon class="cls-18" points="236.89 2173.74 137.58 2173.74 87.93 2259.74 137.58 2345.74 236.89 2345.74 286.54 2259.74 236.89 2173.74"/><polygon class="cls-45" points="236.89 2002.24 137.58 2002.24 87.93 2088.24 137.58 2174.24 236.89 2174.24 286.54 2088.24 236.89 2002.24"/></g></svg>